<svg xmlns="http://www.w3.org/2000/svg" xmlns:xlink="http://www.w3.org/1999/xlink" width="500" zoomAndPan="magnify" viewBox="0 0 375 374.999991" height="500" preserveAspectRatio="xMidYMid meet" version="1.0"><path fill="#000000" d="M 164.300781 21.429688 C 84.789062 30.242188 20 94.398438 10.40625 173.785156 C 10.097656 176.277344 9.839844 178.773438 9.636719 181.277344 C 9.433594 183.78125 9.285156 186.289062 9.1875 188.796875 C 9.09375 191.308594 9.050781 193.816406 9.0625 196.328125 C 9.074219 198.839844 9.140625 201.351562 9.257812 203.859375 C 9.378906 206.367188 9.550781 208.871094 9.777344 211.375 C 10.003906 213.875 10.285156 216.371094 10.617188 218.859375 C 10.953125 221.347656 11.339844 223.828125 11.78125 226.300781 C 12.21875 228.773438 12.710938 231.234375 13.257812 233.6875 C 13.804688 236.140625 14.402344 238.578125 15.050781 241.003906 C 15.703125 243.429688 16.402344 245.839844 17.15625 248.234375 C 17.910156 250.632812 18.714844 253.011719 19.570312 255.371094 C 20.425781 257.734375 21.332031 260.074219 22.285156 262.398438 C 23.242188 264.71875 24.246094 267.019531 25.300781 269.300781 C 26.355469 271.578125 27.457031 273.835938 28.609375 276.066406 C 29.761719 278.300781 30.957031 280.507812 32.203125 282.6875 C 33.449219 284.867188 34.742188 287.019531 36.078125 289.144531 C 37.417969 291.273438 38.800781 293.367188 40.226562 295.433594 C 41.65625 297.5 43.125 299.535156 44.640625 301.539062 C 46.15625 303.539062 47.710938 305.511719 49.3125 307.445312 C 50.910156 309.382812 52.550781 311.285156 54.230469 313.152344 C 55.914062 315.015625 57.632812 316.847656 59.390625 318.636719 C 61.152344 320.429688 62.949219 322.183594 64.78125 323.898438 C 66.617188 325.617188 68.484375 327.292969 70.390625 328.925781 C 72.296875 330.5625 74.238281 332.15625 76.210938 333.707031 C 78.1875 335.257812 80.195312 336.769531 82.234375 338.234375 C 84.273438 339.699219 86.339844 341.121094 88.441406 342.5 C 90.542969 343.878906 92.671875 345.210938 94.828125 346.496094 C 96.984375 347.78125 99.167969 349.019531 101.378906 350.214844 C 103.589844 351.40625 105.824219 352.550781 108.082031 353.648438 C 110.339844 354.746094 112.625 355.792969 114.925781 356.792969 C 117.230469 357.789062 119.554688 358.738281 121.902344 359.640625 C 124.246094 360.539062 126.609375 361.386719 128.988281 362.1875 C 137.765625 363.589844 140.570312 358.152344 140.570312 353.421875 L 140.570312 323.785156 C 92.003906 334.332031 81.664062 300.300781 81.664062 300.300781 C 73.621094 279.957031 62.199219 274.519531 62.199219 274.519531 C 46.238281 263.648438 63.441406 264.007812 63.441406 264.007812 C 80.96875 265.25 90.265625 282.066406 90.265625 282.066406 C 105.519531 308.714844 131.285156 300.820312 141.277344 296.613281 C 142.855469 285.21875 147.484375 277.5 152.324219 273.117188 C 113.339844 268.734375 72.539062 253.65625 72.539062 186.867188 C 72.539062 167.40625 79.207031 151.804688 90.601562 139.355469 C 88.851562 134.972656 82.707031 116.738281 92.351562 93.070312 C 92.351562 93.070312 107.082031 88.328125 140.570312 110.957031 C 147.714844 109.03125 154.957031 107.585938 162.292969 106.613281 C 169.628906 105.644531 176.996094 105.160156 184.398438 105.160156 C 191.796875 105.160156 199.164062 105.644531 206.5 106.613281 C 213.835938 107.585938 221.078125 109.03125 228.222656 110.957031 C 261.734375 88.328125 276.445312 93.070312 276.445312 93.070312 C 286.074219 116.738281 279.945312 134.972656 278.195312 139.355469 C 289.589844 151.765625 296.253906 167.40625 296.253906 186.867188 C 296.253906 253.828125 255.21875 268.5625 216.132812 272.945312 C 222.441406 278.378906 228.222656 289.078125 228.222656 305.375 L 228.222656 353.421875 C 228.222656 358.152344 231.027344 363.761719 239.976562 362.1875 C 242.519531 361.335938 245.039062 360.425781 247.539062 359.457031 C 250.039062 358.492188 252.515625 357.46875 254.96875 356.386719 C 257.421875 355.304688 259.847656 354.167969 262.25 352.976562 C 264.652344 351.785156 267.023438 350.539062 269.367188 349.238281 C 271.710938 347.9375 274.023438 346.585938 276.304688 345.179688 C 278.585938 343.773438 280.835938 342.3125 283.050781 340.804688 C 285.265625 339.296875 287.445312 337.734375 289.585938 336.125 C 291.730469 334.515625 293.835938 332.859375 295.902344 331.152344 C 297.972656 329.449219 300 327.695312 301.984375 325.898438 C 303.972656 324.097656 305.917969 322.253906 307.820312 320.367188 C 309.722656 318.480469 311.582031 316.550781 313.398438 314.574219 C 315.210938 312.601562 316.980469 310.589844 318.703125 308.535156 C 320.421875 306.480469 322.097656 304.390625 323.722656 302.257812 C 325.351562 300.128906 326.925781 297.960938 328.453125 295.757812 C 329.980469 293.554688 331.457031 291.316406 332.878906 289.046875 C 334.304688 286.777344 335.675781 284.476562 336.996094 282.140625 C 338.3125 279.808594 339.578125 277.445312 340.789062 275.054688 C 342 272.664062 343.15625 270.246094 344.253906 267.800781 C 345.355469 265.355469 346.398438 262.886719 347.386719 260.394531 C 348.371094 257.902344 349.300781 255.390625 350.171875 252.855469 C 351.046875 250.320312 351.859375 247.769531 352.613281 245.195312 C 353.367188 242.625 354.0625 240.035156 354.699219 237.433594 C 355.335938 234.828125 355.910156 232.210938 356.425781 229.582031 C 356.945312 226.949219 357.398438 224.308594 357.792969 221.660156 C 358.191406 219.007812 358.523438 216.347656 358.796875 213.683594 C 359.070312 211.015625 359.28125 208.34375 359.433594 205.667969 C 359.585938 202.992188 359.675781 200.316406 359.703125 197.632812 C 359.730469 194.953125 359.699219 192.273438 359.601562 189.597656 C 359.507812 186.917969 359.351562 184.242188 359.136719 181.570312 C 358.917969 178.898438 358.640625 176.234375 358.300781 173.574219 C 357.960938 170.917969 357.5625 168.265625 357.101562 165.625 C 356.640625 162.984375 356.121094 160.355469 355.539062 157.738281 C 354.957031 155.125 354.316406 152.523438 353.617188 149.933594 C 352.914062 147.347656 352.15625 144.777344 351.339844 142.222656 C 350.519531 139.671875 349.644531 137.140625 348.710938 134.628906 C 347.777344 132.113281 346.785156 129.625 345.738281 127.160156 C 344.6875 124.691406 343.585938 122.25 342.425781 119.832031 C 341.265625 117.417969 340.050781 115.027344 338.78125 112.667969 C 337.511719 110.308594 336.1875 107.976562 334.8125 105.675781 C 333.433594 103.375 332.007812 101.109375 330.527344 98.875 C 329.046875 96.640625 327.515625 94.441406 325.933594 92.277344 C 324.355469 90.113281 322.722656 87.984375 321.046875 85.894531 C 319.367188 83.804688 317.640625 81.753906 315.871094 79.742188 C 314.097656 77.734375 312.28125 75.765625 310.417969 73.835938 C 308.554688 71.910156 306.648438 70.023438 304.699219 68.183594 C 302.75 66.34375 300.761719 64.550781 298.730469 62.800781 C 296.699219 61.050781 294.628906 59.351562 292.519531 57.695312 C 290.410156 56.042969 288.265625 54.4375 286.082031 52.882812 C 283.898438 51.324219 281.679688 49.820312 279.429688 48.367188 C 277.179688 46.914062 274.894531 45.511719 272.578125 44.160156 C 270.261719 42.8125 267.917969 41.515625 265.542969 40.273438 C 263.167969 39.03125 260.765625 37.84375 258.335938 36.710938 C 255.90625 35.582031 253.449219 34.503906 250.972656 33.484375 C 248.492188 32.464844 245.992188 31.503906 243.46875 30.597656 C 240.945312 29.695312 238.402344 28.847656 235.84375 28.058594 C 233.28125 27.269531 230.703125 26.539062 228.105469 25.871094 C 225.511719 25.199219 222.902344 24.589844 220.277344 24.039062 C 217.65625 23.488281 215.019531 22.996094 212.375 22.566406 C 209.730469 22.136719 207.074219 21.769531 204.414062 21.460938 C 201.75 21.152344 199.082031 20.902344 196.410156 20.71875 C 193.734375 20.53125 191.058594 20.40625 188.378906 20.34375 C 185.699219 20.28125 183.019531 20.277344 180.339844 20.335938 C 177.660156 20.394531 174.980469 20.515625 172.308594 20.699219 C 169.632812 20.878906 166.964844 21.125 164.300781 21.429688 Z M 164.300781 21.429688 " fill-opacity="1" fill-rule="nonzero"/></svg>